<svg xmlns="http://www.w3.org/2000/svg" xmlns:xlink="http://www.w3.org/1999/xlink" viewBox="0 0 2926 1867"><defs><style>.cls-1,.cls-15{fill:#34cbe6;}.cls-18,.cls-2{fill:#00e2c9;}.cls-10,.cls-11,.cls-24,.cls-3,.cls-37,.cls-38,.cls-4,.cls-48,.cls-49,.cls-50,.cls-51,.cls-52,.cls-53,.cls-9{fill:none;}.cls-11,.cls-24,.cls-3,.cls-37,.cls-38,.cls-4,.cls-48,.cls-49,.cls-50,.cls-51,.cls-52,.cls-53{stroke-linecap:round;}.cls-24,.cls-3,.cls-37,.cls-38,.cls-4,.cls-48,.cls-49,.cls-50,.cls-51,.cls-52,.cls-53{stroke-linejoin:round;}.cls-3,.cls-4,.cls-48,.cls-49,.cls-50,.cls-51{stroke-width:11px;}.cls-3{stroke:url(#Dégradé_sans_nom_7);}.cls-4{stroke:url(#Dégradé_sans_nom_7-2);}.cls-5{fill:#14395a;}.cls-6{fill:#e4f7f9;}.cls-7{font-size:26.9px;}.cls-25,.cls-32,.cls-41,.cls-7{font-family:Roboto-Regular, Roboto;}.cls-8{letter-spacing:0.01em;}.cls-24,.cls-38,.cls-49,.cls-9{stroke:#00e2c9;}.cls-10,.cls-11,.cls-9{stroke-miterlimit:10;}.cls-9{stroke-width:2.96px;}.cls-10,.cls-11{stroke:#00212a;stroke-width:3.23px;}.cls-12{font-size:45px;}.cls-12,.cls-25,.cls-41,.cls-43{fill:#fff;}.cls-12,.cls-23,.cls-44{font-family:Roboto-Bold, Roboto;font-weight:700;}.cls-13{letter-spacing:-0.01em;}.cls-14{letter-spacing:-0.01em;}.cls-15,.cls-18{font-size:37px;}.cls-15,.cls-18,.cls-28{font-family:Roboto-Black, Roboto;font-weight:800;}.cls-16{letter-spacing:-0.1em;}.cls-17{letter-spacing:-0.01em;}.cls-19{letter-spacing:-0.02em;}.cls-20{letter-spacing:-0.01em;}.cls-21{letter-spacing:-0.04em;}.cls-22{letter-spacing:-0.05em;}.cls-23{font-size:43.05px;}.cls-24{stroke-width:2.15px;stroke-dasharray:4.52 4.52;}.cls-25{font-size:15.07px;}.cls-26{letter-spacing:-0.01em;}.cls-27{letter-spacing:-0.01em;}.cls-28{font-size:22px;}.cls-29{letter-spacing:-0.01em;}.cls-30{letter-spacing:-0.01em;}.cls-31{letter-spacing:-0.01em;}.cls-32{font-size:18px;}.cls-33{fill:url(#Dégradé_sans_nom_4);}.cls-34{fill:url(#Dégradé_sans_nom_4-2);}.cls-35{fill:url(#Dégradé_sans_nom_4-3);}.cls-36{fill:url(#Dégradé_sans_nom_4-4);}.cls-37{stroke:#34cbe6;stroke-dasharray:13.13 13.13;}.cls-37,.cls-38{stroke-width:5px;}.cls-38{stroke-dasharray:13.12 13.12;}.cls-39{fill:#b4754b;}.cls-40{fill:#4badad;}.cls-41{font-size:39px;}.cls-42{letter-spacing:-0.09em;}.cls-44{font-size:50px;fill:#00212a;}.cls-45{letter-spacing:-0.01em;}.cls-46{letter-spacing:-0.01em;}.cls-47{letter-spacing:-0.01em;}.cls-48{stroke:url(#Dégradé_sans_nom_7-3);}.cls-50{stroke:url(#Dégradé_sans_nom_7-4);}.cls-51{stroke:url(#Dégradé_sans_nom_7-5);}.cls-52,.cls-53{stroke:#fff;stroke-width:4px;}.cls-53{stroke-dasharray:0.99 13.89;}</style><linearGradient id="Dégradé_sans_nom_7" x1="1111.25" y1="712" x2="1449.25" y2="712" gradientUnits="userSpaceOnUse"><stop offset="0" stop-color="#00e2c9"/><stop offset="1" stop-color="#34cbe6"/></linearGradient><linearGradient id="Dégradé_sans_nom_7-2" x1="1480.75" x2="1818.75" gradientTransform="matrix(-1, 0, 0, 1, 3256.69, 0)" xlink:href="#Dégradé_sans_nom_7"/><radialGradient id="Dégradé_sans_nom_4" cx="-4075.82" cy="1613.58" r="0.6" gradientTransform="matrix(-30.23, -96.26, -83.49, 26.22, 12003.66, -434238.99)" gradientUnits="userSpaceOnUse"><stop offset="0" stop-color="#00d8e6"/><stop offset="1" stop-color="#009bc4"/></radialGradient><radialGradient id="Dégradé_sans_nom_4-2" cx="-4075.82" cy="1613.59" r="0.61" xlink:href="#Dégradé_sans_nom_4"/><radialGradient id="Dégradé_sans_nom_4-3" cx="-4075.82" cy="1613.59" r="0.6" xlink:href="#Dégradé_sans_nom_4"/><radialGradient id="Dégradé_sans_nom_4-4" cx="-4075.82" cy="1613.59" r="0.6" xlink:href="#Dégradé_sans_nom_4"/><linearGradient id="Dégradé_sans_nom_7-3" x1="1493.42" y1="592.67" x2="1884.77" y2="592.67" gradientTransform="translate(3150.19 1029.39) rotate(-179.87)" xlink:href="#Dégradé_sans_nom_7"/><linearGradient id="Dégradé_sans_nom_7-4" x1="2506.77" y1="416.31" x2="2745.12" y2="416.31" gradientTransform="translate(325.48 3354.81) rotate(-89.87)" xlink:href="#Dégradé_sans_nom_7"/><linearGradient id="Dégradé_sans_nom_7-5" x1="2509.95" y1="1830.3" x2="2748.31" y2="1830.3" gradientTransform="translate(325.48 3354.81) rotate(-89.87)" xlink:href="#Dégradé_sans_nom_7"/></defs><g id="Calque_1" data-name="Calque 1"><path class="cls-1" d="M151.73,1517.87v4.81H136v17.26h15.7v4.81H116.19v-4.81h16.06v-17.26H116.19v-4.81Z"/><path class="cls-1" d="M129.56,1497.49l-.14,2.46a5.52,5.52,0,0,0,.9,3.21,5.86,5.86,0,0,0,2.54,2h18.87V1510H125.32v-4.3l3.85-.47a9.06,9.06,0,0,1-3.19-2.77,6.43,6.43,0,0,1-1.15-3.79,6.83,6.83,0,0,1,.08-1,6.36,6.36,0,0,1,.19-.8Z"/><path class="cls-1" d="M136,1470.92v16.21h15.72v4.81H116.19v-23.51H120v18.7h12.26v-16.21Z"/><path class="cls-1" d="M151.73,1458.52v4.81H113.65v-4.81Z"/><path class="cls-1" d="M138.28,1452.25a14.53,14.53,0,0,1-9.66-3.18,10.64,10.64,0,0,1-3.79-8.62,10.77,10.77,0,0,1,3.78-8.68,14.54,14.54,0,0,1,9.67-3.18h.54a14.47,14.47,0,0,1,9.66,3.17,11.82,11.82,0,0,1,0,17.3,14.45,14.45,0,0,1-9.65,3.19Zm.52-4.81a12.51,12.51,0,0,0,6.93-1.77,6.4,6.4,0,0,0,0-10.49,12.43,12.43,0,0,0-6.93-1.78h-.53a12.42,12.42,0,0,0-6.9,1.79,5.88,5.88,0,0,0-2.76,5.26,5.81,5.81,0,0,0,2.76,5.22,12.5,12.5,0,0,0,6.9,1.77Z"/><path class="cls-1" d="M142.11,1415.94l3.2-.56v-.15l-3.2-.68-16.79-5.27v-3.86l16.79-5.3,3.57-.75v-.15l-3.57-.71-16.79-4.15v-4.78l26.41,7.66v3.88l-16.09,5.11-4.49,1.09,0,.15,4.46,1,16.09,5v3.88l-26.41,7.67v-4.79Z"/><path class="cls-1" d="M151.73,1382.64v4.81h-5v-4.81Z"/><path class="cls-1" d="M151.73,1358.28c-.79.16-1.5.29-2.11.38a14.12,14.12,0,0,1-1.84.15,11.22,11.22,0,0,1,3.18,3.51,8.9,8.9,0,0,1,1.28,4.65q0,4.13-2.11,6.28a7.76,7.76,0,0,1-5.82,2.16,6.82,6.82,0,0,1-5.92-3.06,14.32,14.32,0,0,1-2.14-8.31v-5.23h-2.61a4.86,4.86,0,0,0-3.67,1.42,5.53,5.53,0,0,0-1.36,4,5.75,5.75,0,0,0,1.19,3.77,3.55,3.55,0,0,0,2.84,1.46v4.59l-.15,0c-1.92.09-3.67-.81-5.27-2.73a11.2,11.2,0,0,1-2.39-7.41,10.9,10.9,0,0,1,2.28-7.22,8.07,8.07,0,0,1,6.58-2.74h12.72a24.09,24.09,0,0,0,2.73-.14,14.19,14.19,0,0,0,2.59-.54Zm-3.54,8a8.52,8.52,0,0,0-1.34-4.71,6.38,6.38,0,0,0-3.07-2.74H139.5v5.4a7,7,0,0,0,1.46,4.65,4.39,4.39,0,0,0,3.43,1.75,3.62,3.62,0,0,0,2.78-1.1A4.64,4.64,0,0,0,148.19,1366.26Z"/><path class="cls-1" d="M118.55,1341.82v4.81h-4.9v-4.81Zm33.18,0v4.81H125.32v-4.81Z"/><path class="cls-1" d="M136.33,1316.28h15.4v4.81H116.21v-12.86q0-5.84,2.59-8.91t7.52-3.08a8.07,8.07,0,0,1,4.76,1.43,9.69,9.69,0,0,1,3.22,4.16,7.28,7.28,0,0,1,3.09-4.21,10,10,0,0,1,5.28-1.28H146a10.9,10.9,0,0,0,3-.37,4.48,4.48,0,0,0,2.15-1.27h.58v5a4,4,0,0,1-2.44,1.22,20,20,0,0,1-3.32.27h-3.25a6.45,6.45,0,0,0-4.64,1.68,6,6,0,0,0-1.75,4.52Zm-3.79,0v-7.56q0-4.08-1.54-5.88a5.93,5.93,0,0,0-4.72-1.79,6,6,0,0,0-4.64,1.75q-1.65,1.74-1.65,5.43v8Z"/><path class="cls-1" d="M135.25,1266.87v16.28H148v-18.77h3.78V1288H116.19v-23.31H120v18.5h11.5v-16.28Z"/><path class="cls-1" d="M142.78,1239.38a5.22,5.22,0,0,0-4.06,1.83q-1.65,1.83-2.76,6.5a21.67,21.67,0,0,1-4,8.8,8.23,8.23,0,0,1-6.59,3.16,8.65,8.65,0,0,1-7-3.41,13.47,13.47,0,0,1-2.79-8.82q0-5.84,3.2-9.29a9.43,9.43,0,0,1,7.42-3.34l.15,0v4.59a6.57,6.57,0,0,0-5,2.07,10.09,10.09,0,0,0-.31,11.42,5.28,5.28,0,0,0,4.24,1.92,4.67,4.67,0,0,0,3.87-2.08,19.71,19.71,0,0,0,2.72-6.74,19.2,19.2,0,0,1,4.1-8.54,8.78,8.78,0,0,1,6.71-2.93,8.18,8.18,0,0,1,6.91,3.52,15,15,0,0,1,2.61,9.18,15.9,15.9,0,0,1-2.89,9.41,8.71,8.71,0,0,1-7.73,4l-.14,0V1256a6,6,0,0,0,5.2-2.52,10.46,10.46,0,0,0,1.78-6.22,9.7,9.7,0,0,0-1.53-5.77A4.86,4.86,0,0,0,142.78,1239.38Z"/><path class="cls-1" d="M120,1203.49v11.43h31.76v4.81H120v11.4h-3.78v-27.64Z"/><path class="cls-1" d="M142.58,1166.58v14.89l9.15,3.37v4.91L116.19,1176v-4.13l35.54-13.52v4.91Zm-4,13.4v-12l-16.19,5.86v.14Z"/><path class="cls-1" d="M137.47,1148.66h14.26v4.81H116.19v-13.6q0-5.68,2.92-8.84a11.07,11.07,0,0,1,15.47,0q2.89,3.15,2.89,8.84Zm-3.78,0v-8.79a6.44,6.44,0,0,0-6.82-7.18,7.09,7.09,0,0,0-4.93,1.79,7,7,0,0,0-2,5.39v8.79Z"/><path class="cls-1" d="M151.73,1116.36v4.83H116.19v-4.83Z"/><path class="cls-2" d="M139,654.06l.13,0a10.16,10.16,0,0,1,8,3.34,12.69,12.69,0,0,1,3.21,9,11.88,11.88,0,0,1-4.06,9.33,14.89,14.89,0,0,1-10.28,3.6h-6a15,15,0,0,1-10.29-3.6,11.88,11.88,0,0,1-4.06-9.33q0-5.71,3-9.1a10.09,10.09,0,0,1,8.07-3.29l.14,0v4.38a7.51,7.51,0,0,0-5.6,2.08,8,8,0,0,0-2.07,5.88,7.21,7.21,0,0,0,3.08,6.1,12.54,12.54,0,0,0,7.64,2.26h6a12.6,12.6,0,0,0,7.68-2.26,7.21,7.21,0,0,0,3.08-6.1,8.06,8.06,0,0,0-2-5.88,7.59,7.59,0,0,0-5.66-2.08Z"/><path class="cls-2" d="M116.08,623.21h22.86q5.51,0,8.43,3.58a14.36,14.36,0,0,1,2.92,9.35,13.52,13.52,0,0,1-2.93,9c-2,2.3-4.76,3.46-8.42,3.46H116.08v-4.56h22.84a7.45,7.45,0,0,0,5.8-2.18,8.21,8.21,0,0,0,2-5.74,9,9,0,0,0-2-6.06,7.21,7.21,0,0,0-5.8-2.31H116.08Z"/><path class="cls-2" d="M141.31,597.39a5,5,0,0,0-3.86,1.74c-1,1.15-1.9,3.21-2.61,6.16a20.37,20.37,0,0,1-3.76,8.35,7.79,7.79,0,0,1-6.25,3,8.19,8.19,0,0,1-6.59-3.24A12.79,12.79,0,0,1,115.6,605a12.47,12.47,0,0,1,3-8.81,9,9,0,0,1,7-3.16l.14.05v4.35a6.25,6.25,0,0,0-4.8,2,9.58,9.58,0,0,0-.29,10.84,5,5,0,0,0,4,1.81,4.4,4.4,0,0,0,3.67-2,18.81,18.81,0,0,0,2.59-6.39,18.14,18.14,0,0,1,3.89-8.1,8.29,8.29,0,0,1,6.37-2.78,7.78,7.78,0,0,1,6.55,3.33,14.27,14.27,0,0,1,2.48,8.71,15.08,15.08,0,0,1-2.75,8.93,8.27,8.27,0,0,1-7.33,3.76l-.14,0v-4.36a5.67,5.67,0,0,0,4.94-2.38,10,10,0,0,0,1.69-5.91,9.26,9.26,0,0,0-1.45-5.47A4.61,4.61,0,0,0,141.31,597.39Z"/><path class="cls-2" d="M119.67,563.35v10.83H149.8v4.57H119.67v10.81h-3.59V563.35Z"/><path class="cls-2" d="M136,533.52a14.42,14.42,0,0,1,10.26,3.83,13,13,0,0,1,4.08,9.95,12.37,12.37,0,0,1-4.08,9.6A14.72,14.72,0,0,1,136,560.59h-6a14.79,14.79,0,0,1-10.26-3.69,12.34,12.34,0,0,1-4.09-9.6,13,13,0,0,1,4.08-9.95A14.46,14.46,0,0,1,130,533.52Zm-6,4.56a11.37,11.37,0,0,0-7.6,2.5,8.36,8.36,0,0,0-3,6.72,7.73,7.73,0,0,0,3,6.35,11.75,11.75,0,0,0,7.6,2.38h6a11.79,11.79,0,0,0,7.64-2.38,7.71,7.71,0,0,0,3-6.35,8.34,8.34,0,0,0-2.95-6.73,11.48,11.48,0,0,0-7.66-2.49Z"/><path class="cls-2" d="M116.08,520.87l27.4-10.74V510l-27.4-10.75V493.4H149.8V498H136.46l-13.71-.47,0,.12,27.07,10.93v3l-27,10.89,0,.12,13.64-.44H149.8v4.56H116.08Z"/><path class="cls-2" d="M134.17,465v15.45h12V462.67h3.59V485H116.08V462.93h3.59v17.55h10.91V465Z"/><path class="cls-2" d="M135.19,452.76H149.8v4.56H116.1v-12.2q0-5.53,2.46-8.46c1.64-1.94,4-2.91,7.13-2.91a7.66,7.66,0,0,1,4.52,1.35,9.26,9.26,0,0,1,3.06,3.95,7,7,0,0,1,2.92-4,9.74,9.74,0,0,1,5-1.21h3.17a10.69,10.69,0,0,0,2.83-.35,4.27,4.27,0,0,0,2-1.2h.55V437a3.78,3.78,0,0,1-2.31,1.16,19.14,19.14,0,0,1-3.15.25h-3.08a6.06,6.06,0,0,0-4.4,1.6,5.61,5.61,0,0,0-1.67,4.28Zm-3.59,0v-7.18c0-2.58-.49-4.43-1.47-5.57a5.6,5.6,0,0,0-4.47-1.7,5.78,5.78,0,0,0-4.41,1.65q-1.56,1.67-1.56,5.16v7.64Z"/><path class="cls-2" d="M134.17,394.1v15.45h12V391.74h3.59v22.37H116.08V392h3.59v17.56h10.91V394.1Z"/><path class="cls-2" d="M149.8,360.89v4.56l-26.08,16.23,0,.14h26v4.57H116.08v-4.57l26-16.23,0-.14h-26v-4.56Z"/><path class="cls-2" d="M141.42,342.55l2.66-.77v-.14l-2.66-.76-25.34-8.71v-4.93l33.72,12.53v3.91l-33.72,12.53v-5Z"/><path class="cls-2" d="M149.8,317.74v4.59H116.08v-4.59Z"/><path class="cls-2" d="M135.19,304.59H149.8v4.56H116.1V297q0-5.54,2.46-8.46a8.81,8.81,0,0,1,7.13-2.92,7.67,7.67,0,0,1,4.52,1.36,9.2,9.2,0,0,1,3.06,3.95,6.88,6.88,0,0,1,2.92-4,9.65,9.65,0,0,1,5-1.21h3.17a10.69,10.69,0,0,0,2.83-.35,4.21,4.21,0,0,0,2-1.21h.55v4.71a3.77,3.77,0,0,1-2.31,1.15,19.13,19.13,0,0,1-3.15.26h-3.08a6.06,6.06,0,0,0-4.4,1.6,5.61,5.61,0,0,0-1.67,4.28Zm-3.59,0v-7.18q0-3.87-1.47-5.57a5.57,5.57,0,0,0-4.47-1.7,5.78,5.78,0,0,0-4.41,1.65c-1,1.11-1.56,2.82-1.56,5.16v7.64Z"/><path class="cls-2" d="M136,252.2A14.42,14.42,0,0,1,146.21,256a13,13,0,0,1,4.08,10,12.34,12.34,0,0,1-4.08,9.6A14.72,14.72,0,0,1,136,279.27h-6a14.79,14.79,0,0,1-10.26-3.69,12.32,12.32,0,0,1-4.09-9.6,13,13,0,0,1,4.08-10A14.46,14.46,0,0,1,130,252.2Zm-6,4.56a11.43,11.43,0,0,0-7.6,2.5,8.36,8.36,0,0,0-3,6.72,7.74,7.74,0,0,0,3,6.36,11.8,11.8,0,0,0,7.6,2.37h6a11.84,11.84,0,0,0,7.64-2.37,7.72,7.72,0,0,0,3-6.36,8.35,8.35,0,0,0-2.95-6.73,11.48,11.48,0,0,0-7.66-2.49Z"/><path class="cls-2" d="M149.8,219.89v4.57l-26.08,16.23,0,.14h26v4.56H116.08v-4.56l26-16.23,0-.14h-26v-4.57Z"/><path class="cls-2" d="M116.08,205.72,143.48,195v-.13l-27.4-10.75v-5.84H149.8v4.57H136.46l-13.71-.47,0,.12L149.8,193.4v3l-27,10.89,0,.11,13.64-.44H149.8v4.57H116.08Z"/><path class="cls-2" d="M134.17,149.88v15.45h12V147.52h3.59v22.37H116.08V147.78h3.59v17.55h10.91V149.88Z"/><path class="cls-2" d="M149.8,116.67v4.57l-26.08,16.23,0,.14h26v4.56H116.08v-4.56l26-16.24,0-.13h-26v-4.57Z"/><path class="cls-2" d="M119.67,86.17V97H149.8v4.56H119.67v10.82h-3.59V86.17Z"/><path class="cls-3" d="M1443.75,803s-25.88-62.61-126.5-61.5c-181,2-198.5-28.5-200.5-120.5"/><path class="cls-4" d="M1443.44,803s25.88-62.61,126.5-61.5c181,2,198.5-28.5,200.5-120.5"/><path class="cls-2" d="M314.4,168.11h901.07a32.65,32.65,0,0,1,32.65,32.65V294a0,0,0,0,1,0,0H281.75a0,0,0,0,1,0,0V200.76A32.65,32.65,0,0,1,314.4,168.11Z"/><path class="cls-5" d="M1710.9,170.11H2612a32.65,32.65,0,0,1,32.65,32.65V296a0,0,0,0,1,0,0H1678.24a0,0,0,0,1,0,0V202.76A32.65,32.65,0,0,1,1710.9,170.11Z"/><rect class="cls-6" x="1678.24" y="308.93" width="966.38" height="135.96"/><rect class="cls-6" x="1678.24" y="461.04" width="966.38" height="135.96"/><path class="cls-2" d="M1244.11,298.05V566.13A28.88,28.88,0,0,1,1215.26,595H314.62a28.88,28.88,0,0,1-28.84-28.84V298.05h958.33m4-4H281.75V566.13A32.87,32.87,0,0,0,314.62,599h900.64a32.87,32.87,0,0,0,32.87-32.87V294Z"/><text class="cls-7" transform="translate(742.64 463.14)">user que<tspan class="cls-8" x="104.3" y="0">r</tspan><tspan x="113.76" y="0">y</tspan></text><rect class="cls-9" x="669.7" y="424.03" width="528.55" height="62.95" rx="29.95"/><circle class="cls-10" cx="706.83" cy="451.47" r="11.84"/><line class="cls-11" x1="724.6" y1="464.59" x2="714.49" y2="453.49"/><line class="cls-11" x1="1137.58" y1="445.55" x2="1155.87" y2="463.85"/><line class="cls-11" x1="1155.87" y1="445.55" x2="1137.58" y2="463.85"/><text class="cls-12" transform="translate(650.87 248.66)">FRO<tspan class="cls-13" x="84.66" y="0">N</tspan><tspan x="115.77" y="0">TEND</tspan></text><text class="cls-12" transform="translate(2060.98 250.66)">B<tspan class="cls-14" x="28.67" y="0">A</tspan><tspan x="57.06" y="0">CKEND</tspan></text><text class="cls-15" transform="translate(1196.85 844.19)">JOB &amp; PROFILE API RESU<tspan class="cls-16" x="432.92" y="0">L</tspan><tspan class="cls-17" x="449.26" y="0">T</tspan><tspan x="469.8" y="0">S</tspan></text><text class="cls-18" transform="translate(547.11 741.19)">CV/QUE<tspan class="cls-19" x="133.2" y="0">R</tspan><tspan x="156.76" y="0">Y</tspan></text><text class="cls-18" transform="translate(1378.11 375.63)">APP <tspan class="cls-20" x="81.26" y="0">D</tspan><tspan class="cls-21" x="105.06" y="0">A</tspan><tspan class="cls-22" x="126.93" y="0">T</tspan><tspan x="145.79" y="0">A</tspan></text><text class="cls-18" transform="translate(2183.75 742.19)">INDEXING PROFILES &amp; JOBS</text><text class="cls-23" transform="translate(2120.31 393.31)">APP</text><text class="cls-23" transform="translate(2070.52 548.84)">Database</text><rect class="cls-6" x="331.34" y="345.86" width="312.08" height="205.54" rx="29.15"/><rect class="cls-24" x="331.34" y="345.86" width="312.08" height="205.54" rx="29.15"/><rect class="cls-1" x="415.28" y="480.37" width="142.05" height="47.35" rx="7.09"/><text class="cls-25" transform="translate(440.65 509.65)">UP<tspan class="cls-26" x="19.85" y="0">L</tspan><tspan class="cls-27" x="27.8" y="0">O</tspan><tspan x="37.92" y="0">AD FILE</tspan></text><text class="cls-28" transform="translate(396.09 446.33)">D<tspan class="cls-29" x="14.37" y="0">r</tspan><tspan x="22.29" y="0">op </tspan><tspan class="cls-30" x="52.5" y="0">y</tspan><tspan x="63.65" y="0">our CV he</tspan><tspan class="cls-31" x="159.62" y="0">r</tspan><tspan x="167.55" y="0">e</tspan></text><text class="cls-32" transform="translate(477.48 469.34)">or</text><path class="cls-33" d="M485.26,389a2.36,2.36,0,0,0-1.71-.73,2.39,2.39,0,0,0-1.71.73l-6.21,6.56a1.47,1.47,0,0,0,1.08,2.54h2.66v11.73a2,2,0,0,0,2,2h4.34a2,2,0,0,0,2-2V398.13h2.66a1.49,1.49,0,0,0,1.12-.45,1.46,1.46,0,0,0,0-2Zm2.27,7.9a1,1,0,0,0-1,.95v12a.84.84,0,0,1-.84.85h-4.3a.84.84,0,0,1-.83-.84v-12a1,1,0,0,0-1-1h-3.68l6.8-7.15a1.17,1.17,0,0,1,1.65,0l6.79,7.15Z"/><path class="cls-34" d="M476.21,385.58h14.22a.6.6,0,1,0,0-1.2H476.21a.6.6,0,0,0,0,1.2Z"/><path class="cls-35" d="M500.67,385.93h0a.57.57,0,0,0-.12-.19l-.09-.07-.1-.06-.11,0H500l-.11,0-.1.06-.09.07-.07.09a.31.31,0,0,0-.05.1.45.45,0,0,0,0,.23.58.58,0,0,0,.17.41l.09.07.1.06.11,0a.45.45,0,0,0,.23,0l.11,0,.1-.06.09-.07a.58.58,0,0,0,.17-.41.49.49,0,0,0,0-.12Z"/><path class="cls-36" d="M498.9,365.85H475.15A4.26,4.26,0,0,0,471,370.2v5l-3.79,4.47-.09.12,0,0,0,0,0,.06,0,.07,0,0a.1.1,0,0,0,0,.05l-.06.1,0,.05-.07.11,0,0-.06.13h0l-.07.16,0,.07a3.92,3.92,0,0,0-.34,1.62V415a4.66,4.66,0,0,0,4.64,4.67h25.46a4.64,4.64,0,0,0,4.64-4.5v-.46h.45a4.37,4.37,0,0,0,4.26-4.35V372.66A6.8,6.8,0,0,0,498.9,365.85Zm-24.31,6.52v6.79a1,1,0,0,1-1,1h-5.89Zm29.89,37.94a3.18,3.18,0,0,1-3.09,3.18l-.5,0V390.44a.6.6,0,0,0-.6-.6.59.59,0,0,0-.59.6V415a3.49,3.49,0,0,1-3.46,3.49H470.87a3.48,3.48,0,0,1-3.46-3.49V382.2a2.64,2.64,0,0,1,0-.38l0-.43h6.1a2.19,2.19,0,0,0,2.2-2.2v-7.8l.32-.08a3.36,3.36,0,0,1,.71-.08h19.34a3.53,3.53,0,0,1,3.55,3.49v6.83a.58.58,0,0,0,.59.59.59.59,0,0,0,.6-.59v-6.16a4.71,4.71,0,0,0-4.66-4.76H477.12a4.43,4.43,0,0,0-1.95.46h0l-.1.06-.09.05-.06,0h0l-.1.06-.08.05-.1.07-.06.05-.12.09-.05.05-.11.09,0,0,0,0a1.14,1.14,0,0,0-.11.11l-.05,0a.69.69,0,0,0-.11.13l-1.75,2v-3.77a3.21,3.21,0,0,1,3.17-3.24h23.44a5.67,5.67,0,0,1,5.67,5.64Z"/><path d="M2086.19,340.64H2054.1a5,5,0,0,0-4.94,4.94v66.66a4.94,4.94,0,0,0,4.94,4.94h32.09a5,5,0,0,0,4.94-4.94V345.58A5,5,0,0,0,2086.19,340.64Zm-10.34,2.47-.7,2.47h-10.29l-.62-2.47Zm12.81,69.13a2.48,2.48,0,0,1-2.47,2.47H2054.1a2.47,2.47,0,0,1-2.47-2.47V345.58a2.47,2.47,0,0,1,2.47-2.47h7.67l1,4a1.23,1.23,0,0,0,1.2.93h12.19a1.24,1.24,0,0,0,1.19-.9l1.13-4h7.71a2.48,2.48,0,0,1,2.47,2.47Z"/><path d="M2063.9,409.77h-8.61a1.27,1.27,0,0,0-1.26,1.05,1.24,1.24,0,0,0,1.23,1.42h8.6a1.26,1.26,0,0,0,1.26-1.05A1.24,1.24,0,0,0,2063.9,409.77Z"/><path d="M2068.83,409.77h-1.19a1.26,1.26,0,0,0-1.26,1.05,1.23,1.23,0,0,0,1.22,1.42h1.2a1.27,1.27,0,0,0,1.26-1.05A1.24,1.24,0,0,0,2068.83,409.77Z"/><path d="M2074.41,371.71a1.24,1.24,0,0,0-1.7.42h0l-7.4,12.35a1.23,1.23,0,0,0,2.11,1.27h0l7.41-12.35a1.23,1.23,0,0,0-.42-1.69Z"/><path d="M2078.44,372a1.23,1.23,0,1,0-1.93,1.54l4.32,5.4-4.32,5.4a1.23,1.23,0,0,0,1.93,1.54l4.94-6.17a1.23,1.23,0,0,0,0-1.54Z"/><path d="M2061.7,385.88a1.23,1.23,0,0,0,1.93-1.54l-4.32-5.4,4.32-5.4a1.24,1.24,0,0,0-.2-1.74,1.23,1.23,0,0,0-1.73.2l-4.94,6.17a1.23,1.23,0,0,0,0,1.54Z"/><path d="M2028.46,505.29a48.76,48.76,0,0,0-28.64,0c-5.5,2-6.66,4.55-6.66,6.34V552c0,1.79,1.16,4.34,6.66,6.33a43.68,43.68,0,0,0,14.32,2.16,50.58,50.58,0,0,0,9.43-.85c7.34-1.41,11.56-4.19,11.56-7.64V511.63C2035.13,509.84,2034,507.29,2028.46,505.29Zm-27.64,2.65a45.81,45.81,0,0,1,26.71,0c3.54,1.28,4.8,2.75,4.8,3.69s-1.26,2.4-4.8,3.68h0a45.81,45.81,0,0,1-26.71,0c-3.54-1.28-4.8-2.74-4.8-3.68S1997.28,509.22,2000.82,507.94Zm31.49,44c0,.76-.8,1.67-2.19,2.49a23.15,23.15,0,0,1-7.08,2.39,48.29,48.29,0,0,1-8.9.79,40.93,40.93,0,0,1-13.36-2c-3.54-1.28-4.8-2.74-4.8-3.68V542.9a17.79,17.79,0,0,0,3.84,1.89,48.55,48.55,0,0,0,28.64,0,17.65,17.65,0,0,0,3.85-1.89V552Zm0-13.51c0,.94-1.27,2.4-4.8,3.68a45.88,45.88,0,0,1-26.73,0c-3.54-1.28-4.8-2.74-4.8-3.68v-9a17.35,17.35,0,0,0,3.84,1.89,48.55,48.55,0,0,0,28.64,0,17.21,17.21,0,0,0,3.85-1.89v9Zm0-13.41c0,.94-1.26,2.39-4.79,3.67h0a45.88,45.88,0,0,1-26.73,0c-3.55-1.29-4.81-2.75-4.81-3.69v-9a17.83,17.83,0,0,0,3.84,1.9,48.76,48.76,0,0,0,28.64,0,17.68,17.68,0,0,0,3.85-1.9Z"/><path d="M2017.42,523.77H2011a1.44,1.44,0,0,0-1.44,1.19,1.41,1.41,0,0,0,1.4,1.62h6.43a1.44,1.44,0,0,0,1.44-1.2A1.41,1.41,0,0,0,2017.42,523.77Z"/><path d="M2017.42,537H2011a1.44,1.44,0,0,0-1.44,1.2,1.42,1.42,0,0,0,1.4,1.62h6.43a1.44,1.44,0,0,0,1.44-1.2A1.42,1.42,0,0,0,2017.42,537Z"/><path d="M2017.42,550.67H2011a1.44,1.44,0,0,0-1.44,1.19,1.41,1.41,0,0,0,1.4,1.62h6.43a1.44,1.44,0,0,0,1.44-1.2A1.41,1.41,0,0,0,2017.42,550.67Z"/><rect class="cls-37" x="192.25" y="873.61" width="2541.5" height="913.89" rx="34.47"/><rect class="cls-38" x="192.75" y="79.5" width="2541" height="606.5" rx="28.08"/><rect class="cls-39" x="281.75" y="964" width="1521" height="117" rx="26"/><rect class="cls-40" x="281.75" y="1391" width="1521" height="117" rx="26"/><rect class="cls-6" x="1827.75" y="964" width="817" height="305" rx="26.17"/><rect class="cls-6" x="1827.75" y="1391" width="817" height="306" rx="26.35"/><rect class="cls-39" x="281.75" y="1224" width="197" height="49"/><text class="cls-41" transform="translate(299.02 1261.59)"><tspan class="cls-42">P</tspan><tspan x="21.61" y="0">ARSING</tspan></text><rect class="cls-39" x="503.75" y="1224" width="244" height="49"/><text class="cls-41" transform="translate(521.91 1261.59)">REVEALING</text><rect class="cls-39" x="772.75" y="1224" width="244" height="49"/><text class="cls-41" transform="translate(786.75 1261.59)">SEARCHING</text><rect class="cls-39" x="1041.75" y="1224" width="203" height="49"/><text class="cls-41" transform="translate(1059.89 1261.59)">SCORING</text><rect class="cls-39" x="1269.75" y="1224" width="254" height="49"/><text class="cls-41" transform="translate(1287.81 1261.59)">REASONING</text><rect class="cls-39" x="1548.75" y="1224" width="254" height="49"/><text class="cls-41" transform="translate(1565.04 1261.59)">EMBEDDING</text><text class="cls-12" transform="translate(959.08 1039.28)">JOB API</text><text class="cls-12" transform="translate(913.11 1466.28)">PROFILE API</text><path class="cls-43" d="M851,1451.26H808.38a1.26,1.26,0,0,0-1.24,1,1.23,1.23,0,0,0,1.2,1.5h42.58a1.27,1.27,0,0,0,1.24-1,1.23,1.23,0,0,0-1.2-1.5Z"/><path class="cls-43" d="M851,1459.1H808.38a1.26,1.26,0,0,0-1.24,1,1.23,1.23,0,0,0,1.2,1.5h42.58a1.26,1.26,0,0,0,1.24-1,1.24,1.24,0,0,0-1.2-1.5Z"/><path class="cls-43" d="M851,1467H808.38a1.26,1.26,0,0,0-1.24,1,1.22,1.22,0,0,0,1.2,1.49h42.58a1.26,1.26,0,0,0,1.24-1,1.23,1.23,0,0,0-1.2-1.5Z"/><path class="cls-43" d="M851,1475H808.38a1.26,1.26,0,0,0-1.24,1,1.23,1.23,0,0,0,1.2,1.5h42.58a1.26,1.26,0,0,0,1.24-1,1.23,1.23,0,0,0-1.2-1.5Z"/><path class="cls-43" d="M851,1435.08H835.33a1.23,1.23,0,1,0,0,2.45h15.61a1.25,1.25,0,0,0,1.26-1.07A1.22,1.22,0,0,0,851,1435.08Z"/><path class="cls-43" d="M851,1428.54H835.33a1.23,1.23,0,1,0,0,2.45h15.61a1.25,1.25,0,0,0,1.26-1.07A1.22,1.22,0,0,0,851,1428.54Z"/><path class="cls-43" d="M858.39,1474a1.29,1.29,0,0,0,2.36-.69v-58.52a1.28,1.28,0,0,0-1.29-1.28h-5.9v-2.35a4.84,4.84,0,0,0-4.83-4.84H797.57a4.82,4.82,0,0,0-4.82,4.82v68.08a3.6,3.6,0,0,0,3.6,3.6h3.59v3.59a3.6,3.6,0,0,0,3.6,3.6h55.92a1.29,1.29,0,0,0,1.29-1.29v-10.18a.33.33,0,0,0-.09-.23,1.29,1.29,0,0,0-2.36.69v6.19a2.37,2.37,0,0,1-2.37,2.37H804.76a2.37,2.37,0,0,1-2.37-2.37v-66.86a2.37,2.37,0,0,1,2.37-2.37h52.91a.63.63,0,0,1,.63.63v57.18A.33.33,0,0,0,858.39,1474Zm-58.45-55.63v62h-2.37a2.37,2.37,0,0,1-2.37-2.36v-66.86a2.37,2.37,0,0,1,2.37-2.37h51.17a2.37,2.37,0,0,1,2.37,2.37v2.37H804.76a4.85,4.85,0,0,0-4.82,4.86Z"/><path class="cls-43" d="M808.2,1430.52a1.23,1.23,0,0,0-1.23,1.23v9.34a3.75,3.75,0,0,0,3.35,3.73c.46,0,13.7,0,13.72,0h0a3.75,3.75,0,0,0,3.35-3.73v-16a3.75,3.75,0,0,0-3.76-3.75H808.26a1.28,1.28,0,0,0-1.29,1.28v3.84a.43.43,0,0,0,.14.32,1.28,1.28,0,0,0,2.31-.73v-1a1.3,1.3,0,0,1,1.3-1.3h12.93a1.3,1.3,0,0,1,1.3,1.3v12.55a10.61,10.61,0,0,0-3.32-2.37,5.26,5.26,0,1,0-8.89,0,10.72,10.72,0,0,0-3.32,2.37v-5.9a1.23,1.23,0,0,0-1.22-1.23Zm9-.93a2.8,2.8,0,1,1-2.8,2.79A2.8,2.8,0,0,1,817.22,1429.59Zm-2.41,7.46a5.22,5.22,0,0,0,4.82,0,8.14,8.14,0,0,1,5.14,4.64,1.27,1.27,0,0,1-1,.61c-.07,0-12.95,0-13.14,0h0a1.31,1.31,0,0,1-1-.61A8.18,8.18,0,0,1,814.81,1437.05Z"/><path class="cls-43" d="M907.88,992.51h-6.64v-6.79a3.89,3.89,0,0,0-3.88-3.88H847.85a3.89,3.89,0,0,0-3.88,3.87v61.91a3.89,3.89,0,0,0,3.88,3.87h6.79v6.8a3.88,3.88,0,0,0,3.87,3.87h32.91a11.28,11.28,0,0,0,6.69-2.65l10.82-10.18a10.26,10.26,0,0,0,2.82-6.52V996.38A3.88,3.88,0,0,0,907.88,992.51Zm-53.24,3.71v52.29h-6.72a1,1,0,0,1-1-1V985.63a1,1,0,0,1,1-1h49.37a1,1,0,0,1,1,1v6.72H858.51A3.88,3.88,0,0,0,854.64,996.22Zm52.28,51-10.82,10.18a5,5,0,0,1-.82.6v-8.9a2.42,2.42,0,0,1,2.41-2.42h9.69A5.17,5.17,0,0,1,906.92,1047.17Zm2-4.49a4.48,4.48,0,0,1-.13,1h-11a5.35,5.35,0,0,0-5.34,5.34v10.07a5.13,5.13,0,0,1-1,.12H858.56a1,1,0,0,1-.94-1V996.3a1,1,0,0,1,1-1H908a1,1,0,0,1,1,1Z"/><path class="cls-43" d="M897.29,1006h-28a1.49,1.49,0,0,0,0,3h28a1.49,1.49,0,0,0,0-3Z"/><path class="cls-43" d="M897.29,1025.29h-28a1.51,1.51,0,0,0-1.46,1.14,1.49,1.49,0,0,0,1.42,1.85h28a1.5,1.5,0,0,0,0-3Z"/><path class="cls-43" d="M884.71,1035H869.27a1.49,1.49,0,0,0,0,3h15.43a1.49,1.49,0,0,0,.05-3Z"/><path class="cls-43" d="M897.29,1015.57h-28a1.49,1.49,0,0,0,0,3h28a1.49,1.49,0,0,0,0-3Z"/><text class="cls-44" transform="translate(1989.39 1061.09)">MEMO<tspan class="cls-19" x="149.22" y="0">R</tspan><tspan x="179.91" y="0">Y</tspan></text><rect class="cls-39" x="1988.75" y="1516" width="221" height="49"/><text class="cls-41" transform="translate(2019.91 1553.59)">B<tspan class="cls-45" x="24.93" y="0">O</tspan><tspan x="51.11" y="0">ARD A</tspan></text><rect class="cls-39" x="2259.75" y="1516" width="221" height="49"/><text class="cls-41" transform="translate(2291.07 1553.59)">B<tspan class="cls-45" x="24.93" y="0">O</tspan><tspan x="51.11" y="0">ARD B</tspan></text><rect class="cls-40" x="1988.75" y="1591" width="221" height="49"/><text class="cls-41" transform="translate(2006.54 1628.59)">SOURCE A</text><rect class="cls-40" x="2259.75" y="1591" width="221" height="49"/><text class="cls-41" transform="translate(2277.71 1628.59)">SOURCE B</text><rect class="cls-39" x="1988.75" y="1088" width="221" height="49"/><text class="cls-41" transform="translate(2019.91 1125.59)">B<tspan class="cls-45" x="24.93" y="0">O</tspan><tspan x="51.11" y="0">ARD A</tspan></text><rect class="cls-39" x="2259.75" y="1088" width="221" height="49"/><text class="cls-41" transform="translate(2291.07 1125.59)">B<tspan class="cls-45" x="24.93" y="0">O</tspan><tspan x="51.11" y="0">ARD B</tspan></text><rect class="cls-40" x="1988.75" y="1163" width="221" height="49"/><text class="cls-41" transform="translate(2006.54 1200.59)">SOURCE A</text><rect class="cls-40" x="2259.75" y="1163" width="221" height="49"/><text class="cls-41" transform="translate(2277.71 1200.59)">SOURCE B</text><path d="M1943.76,1041.47a2,2,0,0,0,2-1.75,2,2,0,0,0-2-2.21h-8.71v-6.59h8.66a2,2,0,0,0,2-1.76,2,2,0,0,0-2-2.2h-8.71v-1.32a4,4,0,0,0-3.95-4h-1.32V1013a2,2,0,0,0-1.76-2,2,2,0,0,0-2.2,2v8.7h-6.6V1013a2,2,0,0,0-1.75-2,2,2,0,0,0-2.2,2v8.7h-6.6V1013a2,2,0,0,0-1.75-2,2,2,0,0,0-2.21,2v8.7h-6.59V1013a2,2,0,0,0-1.76-2,2,2,0,0,0-2.2,2v8.7h-1.32a4,4,0,0,0-4,4V1027h-8.65a2,2,0,0,0-2,1.75,2,2,0,0,0,2,2.21h8.7v6.59h-8.65a2,2,0,0,0-2,1.76,2,2,0,0,0,2,2.2h8.7v6.6h-8.65a2,2,0,0,0-2,1.75,2,2,0,0,0,2,2.2h8.7v6.6h-8.65a2,2,0,0,0-2,1.75,2,2,0,0,0,2,2.21h8.7v1.32a4,4,0,0,0,4,3.95h1.32v8.66a2,2,0,0,0,1.75,2,2,2,0,0,0,2.21-2v-8.71h6.59v8.66a2,2,0,0,0,1.76,2,2,2,0,0,0,2.2-2v-8.71h6.6v8.66a2,2,0,0,0,1.75,2,2,2,0,0,0,2.2-2v-8.71h6.6v8.66a2,2,0,0,0,1.75,2,2,2,0,0,0,2.21-2v-8.71h1.32a4,4,0,0,0,3.95-3.95v-1.32h8.66a2,2,0,0,0,2-1.76,2,2,0,0,0-2-2.2h-8.71V1052h8.66a2,2,0,0,0,2-1.75,2,2,0,0,0-2-2.2h-8.71v-6.6Zm-12.61,22.43h-38.26v-38.26h38.26C1931.15,1065,1931.16,1063.9,1931.15,1063.9Z"/><path d="M1918.61,1032.24h-13.19a2,2,0,0,0-1.4.58l-4,4a2,2,0,0,0-.58,1.4v13.19a2,2,0,0,0,.58,1.4l4,4a2,2,0,0,0,1.4.58h13.19a2,2,0,0,0,1.4-.58l4-4a2,2,0,0,0,.58-1.4v-13.19a2,2,0,0,0-.58-1.4l-4-4A2,2,0,0,0,1918.61,1032.24Zm2,18.3-2.8,2.8h-11.55l-2.8-2.8V1039l2.8-2.8h11.55l2.8,2.8Z"/><text class="cls-44" transform="translate(1992.09 1491.09)">S<tspan class="cls-46" x="30.91" y="0">T</tspan><tspan x="58.91" y="0">OR</tspan><tspan class="cls-47" x="125.17" y="0">A</tspan><tspan x="156.71" y="0">GE</tspan></text><path d="M1937.1,1484.29a7.16,7.16,0,0,0-6.87,5.19h-6.9v-7.66h7.05a14,14,0,0,0,4-27.36,15.9,15.9,0,0,0-15.37-12.1,15.56,15.56,0,0,0-7.94,2.15,13.78,13.78,0,0,0-9.36-3.65,21.08,21.08,0,0,0-10,41h6.9v7.66h-6.89a7.15,7.15,0,1,0,0,3.9h8.84a2,2,0,0,0,2-2v-9.61h6.5v11.78a7.14,7.14,0,1,0,3.9,0v-11.78h6.49v9.61a2,2,0,0,0,2,2h8.85a7.14,7.14,0,1,0,6.87-9.09Zm-52.28,10.39a3.25,3.25,0,1,1,3.25-3.25A3.26,3.26,0,0,1,1884.82,1494.68Zm29.36,5.84a3.25,3.25,0,1,1-3.25-3.25A3.26,3.26,0,0,1,1914.18,1500.52Zm-22.63-22.6a10,10,0,0,1-1.46-19.85,1.94,1.94,0,0,0,1.66-2.11c0-.3,0-.61,0-.92a10,10,0,0,1,17.57-6.48,2,2,0,0,0,2.64.31,11.83,11.83,0,0,1,7.07-2.31,12,12,0,0,1,11.77,10,2,2,0,0,0,1.55,1.62,10,10,0,0,1-2,19.75Zm45.5,16.76a3.25,3.25,0,1,1,3.25-3.25A3.26,3.26,0,0,1,1937.05,1494.68Z"/><path class="cls-39" d="M405.73,1208.56H391a1.08,1.08,0,0,1-.66-.27c-2.75-2.73-.86-6,1.8-6h9.1a1.38,1.38,0,0,0,1.39-1.38v-17.49a3.15,3.15,0,0,1,.92-2.23l6.16-6.16-6.45-6.46a2.12,2.12,0,0,1-.63-1.52V1151a3.23,3.23,0,0,0-3.23-3.22h-7.83a2.47,2.47,0,0,1-1.75-.87c-1.95-2.59-.15-5.43,2.32-5.43h9.24A7.54,7.54,0,0,1,409,1149v16.33l7.47,7.47a3.13,3.13,0,0,1,0,4.44l-7.47,7.47v20.64A3.23,3.23,0,0,1,405.73,1208.56Z"/><path class="cls-39" d="M375.4,1208.56h-9.24a7.55,7.55,0,0,1-7.54-7.54v-16.33l-9-9a.92.92,0,0,1,0-1.3l9-9v-20.64a3.23,3.23,0,0,1,3.23-3.23h14.69a1.08,1.08,0,0,1,.66.27c2.75,2.73.86,6-1.8,6h-9.1a1.38,1.38,0,0,0-1.38,1.38v17.49a3.16,3.16,0,0,1-.93,2.23l-6.16,6.16,6.46,6.46a2.16,2.16,0,0,1,.63,1.52V1199a3.22,3.22,0,0,0,3.23,3.22H376a2.47,2.47,0,0,1,1.75.87C379.67,1205.72,377.87,1208.56,375.4,1208.56Z"/><path class="cls-39" d="M619.82,1146.3s0,.06,0,.08a64.36,64.36,0,0,0,.07,12.14,54.06,54.06,0,0,0,2.85,13,42.76,42.76,0,0,1,5.44-7.25,60.08,60.08,0,0,1,9.15-8,67.83,67.83,0,0,1,11.09-6.47l1.13-.54a34,34,0,0,0-29.51-6Z"/><path class="cls-39" d="M650.11,1153.47l-.08,0a64.48,64.48,0,0,0-10.48,6.13,55.51,55.51,0,0,0-8.74,7.69l1.71,1.43a54.65,54.65,0,0,1,17.64,4.89,67.38,67.38,0,0,1,11.15,6.37l1,.69a34,34,0,0,0-9.56-28.53Z"/><path class="cls-39" d="M659.05,1183.29l-.07,0a64.23,64.23,0,0,0-10.55-6,55,55,0,0,0-11.07-3.73l-.38,2.16a54.26,54.26,0,0,1,4.61,17.76,67.78,67.78,0,0,1,.06,12.84l-.09,1.21a33.71,33.71,0,0,0,17.9-17,35.16,35.16,0,0,0,2-5.49Z"/><path class="cls-39" d="M637.69,1205.93a.28.28,0,0,1,0-.09,65.27,65.27,0,0,0-.07-12.13,55.72,55.72,0,0,0-2.3-11.45l-2.1.77a45.57,45.57,0,0,1-3.91,4.87,59.7,59.7,0,0,1-9.16,8,67.38,67.38,0,0,1-11.09,6.47l-1.1.53a33.73,33.73,0,0,0,29.51,6Z"/><path class="cls-39" d="M598.45,1168.93l.07,0a64,64,0,0,0,10.54,6,54.75,54.75,0,0,0,11.06,3.73l.39-2.18a54.3,54.3,0,0,1-4.59-17.72,67.72,67.72,0,0,1-.06-12.84l.09-1.23a33.62,33.62,0,0,0-17.91,17,35.16,35.16,0,0,0-2,5.49Z"/><path class="cls-39" d="M607.38,1198.75l.08,0a64.66,64.66,0,0,0,10.47-6.13,55.2,55.2,0,0,0,8.75-7.7l-1.71-1.43a54.58,54.58,0,0,1-17.63-4.89,66.58,66.58,0,0,1-11.15-6.37l-1-.69a34,34,0,0,0,9.57,28.53Z"/><path class="cls-39" d="M1167.39,1177.77a7.71,7.71,0,0,0-4,1.1h-6c-.53-3.85-3.78-7-8.14-8.25l.9-1.35a4.17,4.17,0,0,0-.52-5.26l-4.28-3-4.13,2.82-.16.13a4.17,4.17,0,0,0-.52,5.26l.9,1.35c-4.36,1.21-7.61,4.4-8.14,8.25h-19.53a3.68,3.68,0,0,0-3.54,2.58,3.61,3.61,0,0,0,2.47,4.49l1.46.42a41.5,41.5,0,0,1,16.17,9.19,20.83,20.83,0,0,0,8.62,4.61c-3.43,1.75-5.73,4.85-5.73,8.38v1.1h24.25v-1c0-3.86-2.69-7.21-6.59-8.87a21,21,0,0,0,11.93-10.22,4.26,4.26,0,0,0,1.29.22,4.44,4.44,0,0,0,4.42-4.44v-1c2.79.72,4.51,4.1,2.33,7.27a3.83,3.83,0,0,1-2.81,1.47h-5.51a2.84,2.84,0,0,0-2.09,1.08,3.4,3.4,0,0,0,2.55,5.58h4.25a11,11,0,1,0,.13-22Zm-24.78-12.23,2.78-1.91,2.79,1.91a2,2,0,0,1,.51,1.33,1.92,1.92,0,0,1-.33,1.09l-1.42,2.13c-.51,0-1-.09-1.55-.09s-1,0-1.55.09l-1.42-2.13a2,2,0,0,1-.33-1.09A1.94,1.94,0,0,1,1142.61,1165.54Zm2.78,6.6c5,0,9.11,2.87,9.8,6.6h-19.6C1136.28,1175,1140.41,1172.14,1145.39,1172.14Zm9.8,35.24h-19.6c.69-3.73,4.82-6.6,9.8-6.6S1154.5,1203.65,1155.19,1207.38Zm5.74-18.93a18.69,18.69,0,0,1-29.06,5.41,43.61,43.61,0,0,0-17-9.68l-1.45-.41a1.41,1.41,0,0,1-1-1.76,1.45,1.45,0,0,1,1.4-1h47.23a7.69,7.69,0,0,0-1.39,4.4A4.39,4.39,0,0,0,1160.93,1188.45Zm6.46,9.07H1163a1.14,1.14,0,0,1-1.1-1.12c0-.61,1.1-1.14,1.1-1.14h4.27a6.68,6.68,0,0,0,6.71-6.48,6.6,6.6,0,0,0-6.59-6.71h-1.1v3.33s-1,2.2-2.19,2.2a2.21,2.21,0,0,1-2.2-2.2,5.51,5.51,0,0,1,5.5-5.5,8.81,8.81,0,0,1,0,17.62Z"/><path class="cls-39" d="M1115.88,1159.27c-2.66,1.73-5.68,3.68-5.68,7.45,0,4.37,2.22,6.25,3.83,7.62,1.09.93,1.66,1.45,1.66,2.27h2.2c0-1.88-1.24-2.93-2.43-3.94-1.51-1.28-3.06-2.6-3.06-6,0-2.57,2.16-4,4.67-5.61,3-1.91,6.32-4.09,6.32-8.68,0-5.35-4.53-7.43-7.83-8.94-1.41-.65-3.16-1.45-3.16-2h-2.2c0,2,2.16,3,4.44,4,3.07,1.4,6.55,3,6.55,6.94C1121.19,1155.83,1118.61,1157.5,1115.88,1159.27Z"/><path class="cls-39" d="M1130.43,1148.6c2.48,1.76,5,3.57,5,8.15,0,5.59-6.16,7.33-11.59,8.86-4.38,1.23-8.16,2.3-8.16,5.4h2.19c0-1.44,3.34-2.38,6.56-3.29,5.57-1.56,13.2-3.71,13.2-11,0-5.72-3.45-8.16-6-9.94-1.8-1.27-2.81-2-2.81-3.24h-2.2C1126.69,1146,1128.59,1147.3,1130.43,1148.6Z"/><path class="cls-39" d="M1123.85,1161.91c2.73-1.31,6.14-2.94,6.14-6.21h-2.2c0,1.88-2.71,3.18-4.89,4.22s-3.91,1.87-3.91,3.48l2.19.08A9.27,9.27,0,0,1,1123.85,1161.91Z"/><rect class="cls-39" x="1133.24" y="1183.14" width="21.98" height="2.26"/><rect class="cls-39" x="1128.85" y="1183.14" width="2.26" height="2.26"/><path class="cls-39" d="M1408.09,1151.35a1.37,1.37,0,1,0,1.36,1.36A1.36,1.36,0,0,0,1408.09,1151.35Z"/><path class="cls-39" d="M1394.41,1151.35a1.37,1.37,0,1,0,1.37,1.36A1.36,1.36,0,0,0,1394.41,1151.35Z"/><path class="cls-39" d="M1430.93,1180.86a10.89,10.89,0,0,0,1.77-5.86,9.51,9.51,0,0,0-3.47-7.35,9.11,9.11,0,0,0,.73-3.59,10.18,10.18,0,0,0-5.53-9,8.17,8.17,0,0,0-6.22-8.94,9.86,9.86,0,0,0-8.76-6.11,9.61,9.61,0,0,0-8.2,4.92,9.61,9.61,0,0,0-8.2-4.92,9.86,9.86,0,0,0-8.76,6.11,8.19,8.19,0,0,0-6.22,8.94,10.18,10.18,0,0,0-5.53,9,9.11,9.11,0,0,0,.73,3.59,9.51,9.51,0,0,0-3.47,7.35,10.92,10.92,0,0,0,1.77,5.86,9.43,9.43,0,0,0-1.77,5.49,9.53,9.53,0,0,0,2.86,6.77c-.94,5.67,3.59,11.41,9.45,11.41h.12a10.78,10.78,0,0,0,19-.48,10.78,10.78,0,0,0,19,.48h.12a9.91,9.91,0,0,0,9.57-10,9,9,0,0,0-.12-1.43,9.53,9.53,0,0,0,2.86-6.77A9.43,9.43,0,0,0,1430.93,1180.86Zm-31.08-20.16a5.4,5.4,0,0,0-2.67-.74,1.4,1.4,0,0,0-1.42,1.14,1.38,1.38,0,0,0,1.37,1.6,2.72,2.72,0,0,1,2.72,2.73v26a10.89,10.89,0,0,0-8.14-3.71,1.39,1.39,0,0,0-1.42,1.17,1.37,1.37,0,0,0,1.35,1.56,8.21,8.21,0,0,1,8.21,8.2,8.54,8.54,0,0,1-8.21,8.62,8.25,8.25,0,0,1-7.42-4.77,1.37,1.37,0,0,0-1.39-.79l-.29,0c-3.89.53-8.27-3.87-7.09-8.8a1.36,1.36,0,0,0-.45-1.37,6.81,6.81,0,0,1-2.5-5.23,6.66,6.66,0,0,1,1-3.52,9.2,9.2,0,0,0,5.78,2.15,1.4,1.4,0,0,0,1.41-1.18,1.37,1.37,0,0,0-1.36-1.55,7.19,7.19,0,0,1-6.84-7.25,6.79,6.79,0,0,1,3.2-5.76,1.37,1.37,0,0,0,.45-1.83,6.81,6.81,0,0,1-.91-3.35c0-3.69,3-7.24,6.83-7.24,3.63,0,6.82,3.36,6.84,7.2a1.39,1.39,0,0,0,1.22,1.4,1.36,1.36,0,0,0,1.51-1.36,9.91,9.91,0,0,0-9.57-10,8.91,8.91,0,0,0-1.36.11h0a5.47,5.47,0,0,1,9.33-4,1.37,1.37,0,0,0,1.94-1.93,8.12,8.12,0,0,0-4.54-2.3,6.92,6.92,0,0,1,5.57-3.25c3.64,0,6.84,3.39,6.84,7.25Zm22.83,24.27a9.14,9.14,0,0,0,6.24-2.14,6.66,6.66,0,0,1,1,3.52,6.82,6.82,0,0,1-2.78,5.45.72.72,0,0,0-.27.77,7.44,7.44,0,0,1,.31,2c0,4.24-3.84,7.67-7.3,7.2l-.29,0a1.37,1.37,0,0,0-1.39.79,8.25,8.25,0,0,1-7.42,4.77,8.54,8.54,0,0,1-8.21-8.62,8.2,8.2,0,0,1,8.53-8.19.76.76,0,0,0,.57-.25,1.42,1.42,0,0,0-.89-2.5,10.91,10.91,0,0,0-8.21,3.72V1163.8a1.41,1.41,0,0,1,2-1.28,1.41,1.41,0,0,0,1.64-2.28.75.75,0,0,0-.52-.26,5.43,5.43,0,0,0-3.15.72V1150c0-3.86,3.2-7.25,6.84-7.25A6.92,6.92,0,0,1,1415,1146a8.09,8.09,0,0,0-4.8,2.58.74.74,0,0,0-.2.57,1.42,1.42,0,0,0,2.4,1.08,5.47,5.47,0,0,1,9.33,4h0a8.91,8.91,0,0,0-1.36-.11,9.93,9.93,0,0,0-9.57,10.38.75.75,0,0,0,.26.52,1.42,1.42,0,0,0,2.47-.92c0-3.86,3.19-7.24,6.84-7.24,3.82,0,6.83,3.55,6.83,7.24a6.84,6.84,0,0,1-1.23,3.86.69.69,0,0,0,.25,1,6.81,6.81,0,0,1,3.72,6.06,7.19,7.19,0,0,1-6.84,7.25,1.41,1.41,0,0,0-.92,2.46A.73.73,0,0,0,1422.68,1185Z"/><path class="cls-39" d="M1396.8,1169.27a1.35,1.35,0,0,0-1.93-.11,6.85,6.85,0,0,1-11.39-5.1,1.37,1.37,0,0,0-2.74,0,9.58,9.58,0,0,0,8,9.44,4.11,4.11,0,0,1-3.91,2.87,1.37,1.37,0,0,0,0,2.73,6.86,6.86,0,0,0,6.72-5.55,9.55,9.55,0,0,0,5.13-2.35A1.36,1.36,0,0,0,1396.8,1169.27Z"/><path class="cls-39" d="M1382.11,1193.18a1.37,1.37,0,1,0,0,2.74c3.64,0,6.84,3.38,6.84,7.24a1.37,1.37,0,1,0,2.73,0A9.91,9.91,0,0,0,1382.11,1193.18Z"/><path class="cls-39" d="M1393.05,1182.25a12.29,12.29,0,0,0-10.71,6.23,1.37,1.37,0,1,0,2.38,1.35,9.55,9.55,0,0,1,8.33-4.85,1.37,1.37,0,0,0,0-2.73Z"/><path class="cls-39" d="M1417.66,1176.37a4.11,4.11,0,0,1-3.91-2.87,9.58,9.58,0,0,0,8-9.44,1.37,1.37,0,0,0-2.74,0,6.83,6.83,0,0,1-11.39,5.1,1.37,1.37,0,0,0-1.82,2,9.55,9.55,0,0,0,5.13,2.35,6.86,6.86,0,0,0,6.72,5.55,1.37,1.37,0,0,0,0-2.73Z"/><path class="cls-39" d="M1420.39,1193.18a9.91,9.91,0,0,0-9.57,10,1.37,1.37,0,1,0,2.73,0c0-3.86,3.2-7.24,6.84-7.24a1.37,1.37,0,1,0,0-2.74Z"/><path class="cls-39" d="M1420.16,1188.48a12.29,12.29,0,0,0-10.71-6.23,1.37,1.37,0,0,0,0,2.73,9.55,9.55,0,0,1,8.33,4.85,1.37,1.37,0,1,0,2.38-1.35Z"/><path class="cls-39" d="M1704.88,1181.81v-13.62a4.9,4.9,0,1,0-3.66-8.92l-9.74-9.74a4.9,4.9,0,1,0-6.91,1.4l-4.36,10.57-7.43-7.43,7.72-3.21a1,1,0,0,0,.49-1.46,1,1,0,0,0-1.32-.42l-8.47,3.51-2.94-2.94a4.9,4.9,0,1,0-8.24,0l-9.74,9.74a4.9,4.9,0,1,0-1.75,9l2.82,6.78-2.82,6.78a4.9,4.9,0,1,0,1.75,9l9.74,9.74a4.9,4.9,0,1,0,8.92,3.66h13.62a4.9,4.9,0,1,0,0-2.06h-13.24l30.51-12.68a4.9,4.9,0,1,0,5.05-7.58Zm-5.81-17.54-2.85,1.18-5.91-14.21,9.49,9.48a4.86,4.86,0,0,0-.73,3.55Zm.75,1.91a4.92,4.92,0,0,0,3,2v13.24l-5.85-14.07Zm1.13,16-11.66-11.65,5.82-2.4Zm5.78-18.79a2.84,2.84,0,1,1-2.84-2.84A2.84,2.84,0,0,1,1706.73,1163.4Zm-19.34-19.34a2.84,2.84,0,1,1-2.83,2.84A2.84,2.84,0,0,1,1687.39,1144.06Zm-.87,7.66a5.2,5.2,0,0,0,1.76,0l6,14.52-6.6,2.72-5.88-5.88Zm-.87,18.1-8,3.28,3.29-8Zm-22.34-18.1a4.9,4.9,0,0,0,3.53-.71l2.34,2.34-7.92,3.29Zm-4.75,6-6.53,2.71,9.24-9.24Zm5.63-13.71a2.84,2.84,0,1,1-2.84,2.84A2.84,2.84,0,0,1,1664.19,1144.06Zm-19.34,19.34a2.84,2.84,0,1,1,2.84,2.83A2.84,2.84,0,0,1,1644.85,1163.4Zm5.63,4a4.89,4.89,0,0,0,2-4.91l4.93-2-4.93,11.84Zm2,10.27,2.06,5-2.85,1.18a5,5,0,0,0-1.24-1.24Zm0,8,2.85-1.18,5.91,14.21-9.48-9.48A4.91,4.91,0,0,0,1652.51,1185.73Zm-7.66.87a2.84,2.84,0,1,1,2.84,2.84A2.84,2.84,0,0,1,1644.85,1186.6Zm19.34,19.34a2.84,2.84,0,1,1,2.84-2.84A2.84,2.84,0,0,1,1664.19,1205.94Zm23.2-5.67a2.84,2.84,0,1,1-2.83,2.83A2.84,2.84,0,0,1,1687.39,1200.27Zm-19.18,0a4.89,4.89,0,0,0-4.9-2l-6-14.52,4-1.66a1,1,0,0,0,.56-1.34,1,1,0,0,0-1.35-.56l-4,1.66-2.85-6.86,6.51-15.66,10.62-4.41,8.64,8.63-4.4,10.65-7,2.89a1,1,0,1,0,.79,1.91l5.11-2.11-7.36,17.82a1,1,0,1,0,1.91.79l8.14-19.72,10.65-4.4,12.55,12.56a4.86,4.86,0,0,0-.7,3.54Zm35.68-10.87a2.84,2.84,0,1,1,2.84-2.84A2.84,2.84,0,0,1,1703.89,1189.44Z"/><path class="cls-39" d="M1664.25,1178.65a1,1,0,1,0,1.34.56A1,1,0,0,0,1664.25,1178.65Z"/><path class="cls-39" d="M906.31,1199.09h-.26a2.34,2.34,0,0,1-2-1.53l-10.08-29-9.31,21.3a2.13,2.13,0,0,1-1.68,1.3,2.28,2.28,0,0,1-2.06-.61l-10.31-10.23h-6.46a2.32,2.32,0,0,1-2.32-2.06,2.28,2.28,0,0,1,2.3-2.57h7.17a2.22,2.22,0,0,1,1.62.69l8.8,8.65,10.42-23.85a2.41,2.41,0,0,1,2.24-1.39,2.22,2.22,0,0,1,2.08,1.54l10.42,30,7.33-13a2.32,2.32,0,0,1,2-1.16h9.1a2.32,2.32,0,0,1,2.31,2.66,2.21,2.21,0,0,1-2.22,1.84h-8l-9.14,16.22A2.29,2.29,0,0,1,906.31,1199.09Z"/><rect class="cls-40" x="281.75" y="1651" width="197" height="49"/><text class="cls-41" transform="translate(299.02 1688.59)"><tspan class="cls-42">P</tspan><tspan x="21.61" y="0">ARSING</tspan></text><rect class="cls-40" x="503.75" y="1651" width="244" height="49"/><text class="cls-41" transform="translate(521.91 1688.59)">REVEALING</text><rect class="cls-40" x="772.75" y="1651" width="244" height="49"/><text class="cls-41" transform="translate(786.75 1688.59)">SEARCHING</text><rect class="cls-40" x="1041.75" y="1651" width="203" height="49"/><text class="cls-41" transform="translate(1059.89 1688.59)">SCORING</text><rect class="cls-40" x="1269.75" y="1651" width="254" height="49"/><text class="cls-41" transform="translate(1287.81 1688.59)">REASONING</text><rect class="cls-40" x="1548.75" y="1651" width="254" height="49"/><text class="cls-41" transform="translate(1565.04 1688.59)">EMBEDDING</text><path class="cls-40" d="M405.73,1635.56H391a1.08,1.08,0,0,1-.66-.27c-2.75-2.73-.86-6,1.8-6h9.1a1.38,1.38,0,0,0,1.39-1.38v-17.49a3.15,3.15,0,0,1,.92-2.23l6.16-6.16-6.45-6.46a2.12,2.12,0,0,1-.63-1.52V1578a3.23,3.23,0,0,0-3.23-3.22h-7.83a2.47,2.47,0,0,1-1.75-.87c-1.95-2.59-.15-5.43,2.32-5.43h9.24A7.54,7.54,0,0,1,409,1576v16.33l7.47,7.47a3.13,3.13,0,0,1,0,4.44l-7.47,7.47v20.64A3.23,3.23,0,0,1,405.73,1635.56Z"/><path class="cls-40" d="M375.4,1635.56h-9.24a7.55,7.55,0,0,1-7.54-7.54v-16.33l-9-9a.92.92,0,0,1,0-1.3l9-9v-20.64a3.23,3.23,0,0,1,3.23-3.23h14.69a1.08,1.08,0,0,1,.66.27c2.75,2.73.86,6-1.8,6h-9.1a1.38,1.38,0,0,0-1.38,1.38v17.49a3.16,3.16,0,0,1-.93,2.23l-6.16,6.16,6.46,6.46a2.16,2.16,0,0,1,.63,1.52V1626a3.22,3.22,0,0,0,3.23,3.22H376a2.47,2.47,0,0,1,1.75.87C379.67,1632.72,377.87,1635.56,375.4,1635.56Z"/><path class="cls-40" d="M619.82,1573.3s0,.06,0,.08a64.36,64.36,0,0,0,.07,12.14,54.06,54.06,0,0,0,2.85,13,42.76,42.76,0,0,1,5.44-7.25,60.08,60.08,0,0,1,9.15-8,67.83,67.83,0,0,1,11.09-6.47l1.13-.54a34,34,0,0,0-29.51-6Z"/><path class="cls-40" d="M650.11,1580.47l-.08,0a64.48,64.48,0,0,0-10.48,6.13,55.51,55.51,0,0,0-8.74,7.69l1.71,1.43a54.65,54.65,0,0,1,17.64,4.89,67.38,67.38,0,0,1,11.15,6.37l1,.69a34,34,0,0,0-9.56-28.53Z"/><path class="cls-40" d="M659.05,1610.29l-.07,0a64.23,64.23,0,0,0-10.55-6,55,55,0,0,0-11.07-3.73l-.38,2.16a54.26,54.26,0,0,1,4.61,17.76,67.78,67.78,0,0,1,.06,12.84l-.09,1.21a33.71,33.71,0,0,0,17.9-17,35.16,35.16,0,0,0,2-5.49Z"/><path class="cls-40" d="M637.69,1632.93a.28.28,0,0,1,0-.09,65.27,65.27,0,0,0-.07-12.13,55.72,55.72,0,0,0-2.3-11.45l-2.1.77a45.57,45.57,0,0,1-3.91,4.87,59.7,59.7,0,0,1-9.16,8,67.38,67.38,0,0,1-11.09,6.47l-1.1.53a33.73,33.73,0,0,0,29.51,6Z"/><path class="cls-40" d="M598.45,1595.93l.07,0a64,64,0,0,0,10.54,6,54.75,54.75,0,0,0,11.06,3.73l.39-2.18a54.3,54.3,0,0,1-4.59-17.72,67.72,67.72,0,0,1-.06-12.84l.09-1.23a33.62,33.62,0,0,0-17.91,17,35.16,35.16,0,0,0-2,5.49Z"/><path class="cls-40" d="M607.38,1625.75l.08,0a64.66,64.66,0,0,0,10.47-6.13,55.2,55.2,0,0,0,8.75-7.7l-1.71-1.43a54.58,54.58,0,0,1-17.63-4.89,66.58,66.58,0,0,1-11.15-6.37l-1-.69a34,34,0,0,0,9.57,28.53Z"/><path class="cls-40" d="M1167.39,1604.77a7.71,7.71,0,0,0-4,1.1h-6c-.53-3.85-3.78-7-8.14-8.25l.9-1.35a4.17,4.17,0,0,0-.52-5.26l-4.28-3-4.13,2.82-.16.13a4.17,4.17,0,0,0-.52,5.26l.9,1.35c-4.36,1.21-7.61,4.4-8.14,8.25h-19.53a3.68,3.68,0,0,0-3.54,2.58,3.61,3.61,0,0,0,2.47,4.49l1.46.42a41.5,41.5,0,0,1,16.17,9.19,20.83,20.83,0,0,0,8.62,4.61c-3.43,1.75-5.73,4.85-5.73,8.38v1.1h24.25v-1c0-3.86-2.69-7.21-6.59-8.87a21,21,0,0,0,11.93-10.22,4.26,4.26,0,0,0,1.29.22,4.44,4.44,0,0,0,4.42-4.44v-1c2.79.72,4.51,4.1,2.33,7.27a3.83,3.83,0,0,1-2.81,1.47h-5.51a2.84,2.84,0,0,0-2.09,1.08,3.4,3.4,0,0,0,2.55,5.58h4.25a11,11,0,1,0,.13-22Zm-24.78-12.23,2.78-1.91,2.79,1.91a2,2,0,0,1,.51,1.33,1.92,1.92,0,0,1-.33,1.09l-1.42,2.13c-.51,0-1-.09-1.55-.09s-1,0-1.55.09l-1.42-2.13a2,2,0,0,1-.33-1.09A1.94,1.94,0,0,1,1142.61,1592.54Zm2.78,6.6c5,0,9.11,2.87,9.8,6.6h-19.6C1136.28,1602,1140.41,1599.14,1145.39,1599.14Zm9.8,35.24h-19.6c.69-3.73,4.82-6.6,9.8-6.6S1154.5,1630.65,1155.19,1634.38Zm5.74-18.93a18.69,18.69,0,0,1-29.06,5.41,43.61,43.61,0,0,0-17-9.68l-1.45-.41a1.41,1.41,0,0,1-1-1.76,1.45,1.45,0,0,1,1.4-1h47.23a7.69,7.69,0,0,0-1.39,4.4A4.39,4.39,0,0,0,1160.93,1615.45Zm6.46,9.07H1163a1.14,1.14,0,0,1-1.1-1.12c0-.61,1.1-1.14,1.1-1.14h4.27a6.68,6.68,0,0,0,6.71-6.48,6.6,6.6,0,0,0-6.59-6.71h-1.1v3.33s-1,2.2-2.19,2.2a2.21,2.21,0,0,1-2.2-2.2,5.51,5.51,0,0,1,5.5-5.5,8.81,8.81,0,0,1,0,17.62Z"/><path class="cls-40" d="M1115.88,1586.27c-2.66,1.73-5.68,3.68-5.68,7.45,0,4.37,2.22,6.25,3.83,7.62,1.09.93,1.66,1.45,1.66,2.27h2.2c0-1.88-1.24-2.93-2.43-3.94-1.51-1.28-3.06-2.6-3.06-6,0-2.57,2.16-4,4.67-5.61,3-1.91,6.32-4.09,6.32-8.68,0-5.35-4.53-7.43-7.83-8.94-1.41-.65-3.16-1.45-3.16-2h-2.2c0,2,2.16,3,4.44,4,3.07,1.4,6.55,3,6.55,6.94C1121.19,1582.83,1118.61,1584.5,1115.88,1586.27Z"/><path class="cls-40" d="M1130.43,1575.6c2.48,1.76,5,3.57,5,8.15,0,5.59-6.16,7.33-11.59,8.86-4.38,1.23-8.16,2.3-8.16,5.4h2.19c0-1.44,3.34-2.38,6.56-3.29,5.57-1.56,13.2-3.71,13.2-11,0-5.72-3.45-8.16-6-9.94-1.8-1.27-2.81-2-2.81-3.24h-2.2C1126.69,1573,1128.59,1574.3,1130.43,1575.6Z"/><path class="cls-40" d="M1123.85,1588.91c2.73-1.31,6.14-2.94,6.14-6.21h-2.2c0,1.88-2.71,3.18-4.89,4.22s-3.91,1.87-3.91,3.48l2.19.08A9.27,9.27,0,0,1,1123.85,1588.91Z"/><rect class="cls-40" x="1133.24" y="1610.14" width="21.98" height="2.26"/><rect class="cls-40" x="1128.85" y="1610.14" width="2.26" height="2.26"/><path class="cls-40" d="M1408.09,1578.35a1.37,1.37,0,1,0,1.36,1.36A1.36,1.36,0,0,0,1408.09,1578.35Z"/><path class="cls-40" d="M1394.41,1578.35a1.37,1.37,0,1,0,1.37,1.36A1.36,1.36,0,0,0,1394.41,1578.35Z"/><path class="cls-40" d="M1430.93,1607.86a10.89,10.89,0,0,0,1.77-5.86,9.51,9.51,0,0,0-3.47-7.35,9.11,9.11,0,0,0,.73-3.59,10.18,10.18,0,0,0-5.53-9,8.17,8.17,0,0,0-6.22-8.94,9.86,9.86,0,0,0-8.76-6.11,9.61,9.61,0,0,0-8.2,4.92,9.61,9.61,0,0,0-8.2-4.92,9.86,9.86,0,0,0-8.76,6.11,8.19,8.19,0,0,0-6.22,8.94,10.18,10.18,0,0,0-5.53,9,9.11,9.11,0,0,0,.73,3.59,9.51,9.51,0,0,0-3.47,7.35,10.92,10.92,0,0,0,1.77,5.86,9.43,9.43,0,0,0-1.77,5.49,9.53,9.53,0,0,0,2.86,6.77c-.94,5.67,3.59,11.41,9.45,11.41h.12a10.78,10.78,0,0,0,19-.48,10.78,10.78,0,0,0,19,.48h.12a9.91,9.91,0,0,0,9.57-10,9,9,0,0,0-.12-1.43,9.53,9.53,0,0,0,2.86-6.77A9.43,9.43,0,0,0,1430.93,1607.86Zm-31.08-20.16a5.4,5.4,0,0,0-2.67-.74,1.4,1.4,0,0,0-1.42,1.14,1.38,1.38,0,0,0,1.37,1.6,2.72,2.72,0,0,1,2.72,2.73v26a10.89,10.89,0,0,0-8.14-3.71,1.39,1.39,0,0,0-1.42,1.17,1.37,1.37,0,0,0,1.35,1.56,8.21,8.21,0,0,1,8.21,8.2,8.54,8.54,0,0,1-8.21,8.62,8.25,8.25,0,0,1-7.42-4.77,1.37,1.37,0,0,0-1.39-.79l-.29,0c-3.89.53-8.27-3.87-7.09-8.8a1.36,1.36,0,0,0-.45-1.37,6.81,6.81,0,0,1-2.5-5.23,6.66,6.66,0,0,1,1-3.52,9.2,9.2,0,0,0,5.78,2.15,1.4,1.4,0,0,0,1.41-1.18,1.37,1.37,0,0,0-1.36-1.55,7.19,7.19,0,0,1-6.84-7.25,6.79,6.79,0,0,1,3.2-5.76,1.37,1.37,0,0,0,.45-1.83,6.81,6.81,0,0,1-.91-3.35c0-3.69,3-7.24,6.83-7.24,3.63,0,6.82,3.36,6.84,7.2a1.39,1.39,0,0,0,1.22,1.4,1.36,1.36,0,0,0,1.51-1.36,9.91,9.91,0,0,0-9.57-10,8.91,8.91,0,0,0-1.36.11h0a5.47,5.47,0,0,1,9.33-4,1.37,1.37,0,0,0,1.94-1.93,8.12,8.12,0,0,0-4.54-2.3,6.92,6.92,0,0,1,5.57-3.25c3.64,0,6.84,3.39,6.84,7.25Zm22.83,24.27a9.14,9.14,0,0,0,6.24-2.14,6.66,6.66,0,0,1,1,3.52,6.82,6.82,0,0,1-2.78,5.45.72.72,0,0,0-.27.77,7.44,7.44,0,0,1,.31,2c0,4.24-3.84,7.67-7.3,7.2l-.29,0a1.37,1.37,0,0,0-1.39.79,8.25,8.25,0,0,1-7.42,4.77,8.54,8.54,0,0,1-8.21-8.62,8.2,8.2,0,0,1,8.53-8.19.76.76,0,0,0,.57-.25,1.42,1.42,0,0,0-.89-2.5,10.91,10.91,0,0,0-8.21,3.72V1590.8a1.41,1.41,0,0,1,2-1.28,1.41,1.41,0,0,0,1.64-2.28.75.75,0,0,0-.52-.26,5.43,5.43,0,0,0-3.15.72V1577c0-3.86,3.2-7.25,6.84-7.25A6.92,6.92,0,0,1,1415,1573a8.09,8.09,0,0,0-4.8,2.58.74.74,0,0,0-.2.57,1.42,1.42,0,0,0,2.4,1.08,5.47,5.47,0,0,1,9.33,4h0a8.91,8.91,0,0,0-1.36-.11,9.93,9.93,0,0,0-9.57,10.38.75.75,0,0,0,.26.52,1.42,1.42,0,0,0,2.47-.92c0-3.86,3.19-7.24,6.84-7.24,3.82,0,6.83,3.55,6.83,7.24a6.84,6.84,0,0,1-1.23,3.86.69.69,0,0,0,.25,1,6.81,6.81,0,0,1,3.72,6.06,7.19,7.19,0,0,1-6.84,7.25,1.41,1.41,0,0,0-.92,2.46A.73.73,0,0,0,1422.68,1612Z"/><path class="cls-40" d="M1396.8,1596.27a1.35,1.35,0,0,0-1.93-.11,6.85,6.85,0,0,1-11.39-5.1,1.37,1.37,0,0,0-2.74,0,9.58,9.58,0,0,0,8,9.44,4.11,4.11,0,0,1-3.91,2.87,1.37,1.37,0,0,0,0,2.73,6.86,6.86,0,0,0,6.72-5.55,9.55,9.55,0,0,0,5.13-2.35A1.36,1.36,0,0,0,1396.8,1596.27Z"/><path class="cls-40" d="M1382.11,1620.18a1.37,1.37,0,1,0,0,2.74c3.64,0,6.84,3.38,6.84,7.24a1.37,1.37,0,1,0,2.73,0A9.91,9.91,0,0,0,1382.11,1620.18Z"/><path class="cls-40" d="M1393.05,1609.25a12.29,12.29,0,0,0-10.71,6.23,1.37,1.37,0,1,0,2.38,1.35,9.55,9.55,0,0,1,8.33-4.85,1.37,1.37,0,0,0,0-2.73Z"/><path class="cls-40" d="M1417.66,1603.37a4.11,4.11,0,0,1-3.91-2.87,9.58,9.58,0,0,0,8-9.44,1.37,1.37,0,0,0-2.74,0,6.83,6.83,0,0,1-11.39,5.1,1.37,1.37,0,0,0-1.82,2,9.55,9.55,0,0,0,5.13,2.35,6.86,6.86,0,0,0,6.72,5.55,1.37,1.37,0,0,0,0-2.73Z"/><path class="cls-40" d="M1420.39,1620.18a9.91,9.91,0,0,0-9.57,10,1.37,1.37,0,1,0,2.73,0c0-3.86,3.2-7.24,6.84-7.24a1.37,1.37,0,1,0,0-2.74Z"/><path class="cls-40" d="M1420.16,1615.48a12.29,12.29,0,0,0-10.71-6.23,1.37,1.37,0,0,0,0,2.73,9.55,9.55,0,0,1,8.33,4.85,1.37,1.37,0,1,0,2.38-1.35Z"/><path class="cls-40" d="M1704.88,1608.81v-13.62a4.9,4.9,0,1,0-3.66-8.92l-9.74-9.74a4.9,4.9,0,1,0-6.91,1.4l-4.36,10.57-7.43-7.43,7.72-3.21a1,1,0,0,0,.49-1.46,1,1,0,0,0-1.32-.42l-8.47,3.51-2.94-2.94a4.9,4.9,0,1,0-8.24,0l-9.74,9.74a4.9,4.9,0,1,0-1.75,9l2.82,6.78-2.82,6.78a4.9,4.9,0,1,0,1.75,9l9.74,9.74a4.9,4.9,0,1,0,8.92,3.66h13.62a4.9,4.9,0,1,0,0-2.06h-13.24l30.51-12.68a4.9,4.9,0,1,0,5.05-7.58Zm-5.81-17.54-2.85,1.18-5.91-14.21,9.49,9.48a4.86,4.86,0,0,0-.73,3.55Zm.75,1.91a4.92,4.92,0,0,0,3,2v13.24l-5.85-14.07Zm1.13,16-11.66-11.65,5.82-2.4Zm5.78-18.79a2.84,2.84,0,1,1-2.84-2.84A2.84,2.84,0,0,1,1706.73,1590.4Zm-19.34-19.34a2.84,2.84,0,1,1-2.83,2.84A2.84,2.84,0,0,1,1687.39,1571.06Zm-.87,7.66a5.2,5.2,0,0,0,1.76,0l6,14.52-6.6,2.72-5.88-5.88Zm-.87,18.1-8,3.28,3.29-8Zm-22.34-18.1a4.9,4.9,0,0,0,3.53-.71l2.34,2.34-7.92,3.29Zm-4.75,6-6.53,2.71,9.24-9.24Zm5.63-13.71a2.84,2.84,0,1,1-2.84,2.84A2.84,2.84,0,0,1,1664.19,1571.06Zm-19.34,19.34a2.84,2.84,0,1,1,2.84,2.83A2.84,2.84,0,0,1,1644.85,1590.4Zm5.63,4a4.89,4.89,0,0,0,2-4.91l4.93-2-4.93,11.84Zm2,10.27,2.06,5-2.85,1.18a5,5,0,0,0-1.24-1.24Zm0,8,2.85-1.18,5.91,14.21-9.48-9.48A4.91,4.91,0,0,0,1652.51,1612.73Zm-7.66.87a2.84,2.84,0,1,1,2.84,2.84A2.84,2.84,0,0,1,1644.85,1613.6Zm19.34,19.34a2.84,2.84,0,1,1,2.84-2.84A2.84,2.84,0,0,1,1664.19,1632.94Zm23.2-5.67a2.84,2.84,0,1,1-2.83,2.83A2.84,2.84,0,0,1,1687.39,1627.27Zm-19.18,0a4.89,4.89,0,0,0-4.9-2l-6-14.52,4-1.66a1,1,0,0,0,.56-1.34,1,1,0,0,0-1.35-.56l-4,1.66-2.85-6.86,6.51-15.66,10.62-4.41,8.64,8.63-4.4,10.65-7,2.89a1,1,0,1,0,.79,1.91l5.11-2.11-7.36,17.82a1,1,0,1,0,1.91.79l8.14-19.72,10.65-4.4,12.55,12.56a4.86,4.86,0,0,0-.7,3.54Zm35.68-10.87a2.84,2.84,0,1,1,2.84-2.84A2.84,2.84,0,0,1,1703.89,1616.44Z"/><path class="cls-40" d="M1664.25,1605.65a1,1,0,1,0,1.34.56A1,1,0,0,0,1664.25,1605.65Z"/><path class="cls-40" d="M906.31,1626.09h-.26a2.34,2.34,0,0,1-2-1.53l-10.08-29-9.31,21.3a2.13,2.13,0,0,1-1.68,1.3,2.28,2.28,0,0,1-2.06-.61l-10.31-10.23h-6.46a2.32,2.32,0,0,1-2.32-2.06,2.28,2.28,0,0,1,2.3-2.57h7.17a2.22,2.22,0,0,1,1.62.69l8.8,8.65,10.42-23.85a2.41,2.41,0,0,1,2.24-1.39,2.22,2.22,0,0,1,2.08,1.54l10.42,30,7.33-13a2.32,2.32,0,0,1,2-1.16h9.1a2.32,2.32,0,0,1,2.31,2.66,2.21,2.21,0,0,1-2.22,1.84h-8l-9.14,16.22A2.29,2.29,0,0,1,906.31,1626.09Z"/><line class="cls-48" x1="1652.61" y1="433.36" x2="1272.25" y2="432.5"/><polyline class="cls-49" points="1605 475.19 1653.5 432.75 1605 390.31"/><line class="cls-50" x1="747.27" y1="843.48" x2="748.12" y2="616.13"/><polyline class="cls-49" points="705.44 795.88 747.88 844.38 790.31 795.88"/><polyline class="cls-49" points="1159.31 660.38 1116.88 611.88 1074.44 660.38"/><line class="cls-51" x1="2161.27" y1="843.48" x2="2162.12" y2="616.13"/><polyline class="cls-49" points="2119.44 795.88 2161.88 844.38 2204.31 795.88"/><line class="cls-52" x1="1286.75" y1="537" x2="1287.25" y2="537"/><line class="cls-53" x1="1301.14" y1="537" x2="1666.3" y2="537"/><line class="cls-52" x1="1673.25" y1="537" x2="1673.75" y2="537"/><polyline class="cls-49" points="1727.88 660.38 1770.32 611.88 1812.75 660.38"/></g></svg>